<?xml version="1.0" encoding="iso-8859-1"?>
<!-- Generator: Adobe Illustrator 19.0.0, SVG Export Plug-In . SVG Version: 6.00 Build 0)  -->
<svg version="1.1" id="Capa_1" xmlns="http://www.w3.org/2000/svg" xmlns:xlink="http://www.w3.org/1999/xlink" x="0px" y="0px"
	 viewBox="0 0 512 512" style="enable-background:new 0 0 512 512;" xml:space="preserve">
<circle style="fill:#EBC9A0;" cx="256" cy="256" r="256"/>
<path style="fill:#D7AF8C;" d="M97.321,127.85c-48.263,48.263-70.685,104.092,56.178,230.956s182.692,104.442,230.956,56.178
	s70.685-104.092-56.178-230.956S145.584,79.586,97.321,127.85z"/>
<path style="fill:#FBE6A5;" d="M112.433,112.433c-48.263,48.263-70.685,104.092,56.178,230.956s182.692,104.442,230.956,56.178
	s70.685-104.092-56.178-230.956S160.696,64.17,112.433,112.433z"/>
<g>
	<path style="fill:#FFAF5D;" d="M374.236,377.927l-36.777-1.708c-9.74-0.452-17.269-8.715-16.817-18.455l1.708-36.777
		c0.452-9.74,8.715-17.269,18.455-16.817l36.777,1.708c9.74,0.452,17.269,8.715,16.817,18.455l-1.708,36.777
		C392.238,370.85,383.976,378.379,374.236,377.927z"/>
	<path style="fill:#FFAF5D;" d="M190.875,186.764l-36.777-1.708c-9.74-0.452-17.269-8.715-16.817-18.455l1.708-36.777
		c0.452-9.74,8.715-17.269,18.455-16.817l36.777,1.708c9.74,0.452,17.269,8.715,16.817,18.455l-1.708,36.777
		C208.878,179.687,200.616,187.216,190.875,186.764z"/>
</g>
<g>
	<circle style="fill:#87CD6E;" cx="317.25" cy="389.87" r="21.75"/>
	<circle style="fill:#87CD6E;" cx="118.05" cy="185.45" r="20.293"/>
</g>
<g>
	<circle style="fill:#ADDF6E;" cx="342.22" cy="380.84" r="25.654"/>
	<circle style="fill:#ADDF6E;" cx="129.64" cy="159.25" r="22.467"/>
	<circle style="fill:#ADDF6E;" cx="186.08" cy="303.6" r="19.16"/>
</g>
<circle style="fill:#FF6464;" cx="168.61" cy="237.27" r="66.21"/>
<circle style="fill:#FF8782;" cx="168.61" cy="237.27" r="48.552"/>
<circle style="fill:#FF6464;" cx="274.73" cy="330.9" r="66.21"/>
<circle style="fill:#FF8782;" cx="274.73" cy="330.9" r="48.552"/>
<path style="fill:#F59B55;" d="M195.029,123.177c0,0-38.361,29.558-53.787,53.374L347.03,341.078c0,0,27.049,11.153,51.497,0.23
	L195.029,123.177z"/>
<g>
	<path style="fill:#FFAF5D;" d="M276.621,270.013l-38.308,7.994c-9.545,1.992-18.898-4.131-20.889-13.676l-7.994-38.308
		c-1.992-9.545,4.131-18.898,13.676-20.889l38.308-7.994c9.545-1.992,18.898,4.131,20.889,13.676l7.994,38.308
		C292.289,258.668,286.166,268.021,276.621,270.013z"/>
	<path style="fill:#FFAF5D;" d="M327.42,334.232l-36.777-1.708c-9.74-0.452-17.269-8.715-16.817-18.455l1.708-36.777
		c0.452-9.74,8.715-17.269,18.455-16.817l36.777,1.708c9.74,0.452,17.269,8.715,16.817,18.455l-1.708,36.777
		C345.423,327.156,337.16,334.685,327.42,334.232z"/>
	<path style="fill:#FFAF5D;" d="M255.197,332.192l-26.454-1.229c-9.74-0.452-17.269-8.715-16.817-18.455l1.229-26.454
		c0.452-9.74,8.715-17.269,18.455-16.817l26.454,1.229c9.74,0.452,17.269,8.715,16.817,18.455l-1.229,26.454
		C273.2,325.116,264.938,332.645,255.197,332.192z"/>
</g>
<path style="fill:#FFBE50;" d="M196.825,165.295l-6.476,25.679c-2.384,9.455-11.982,15.186-21.436,12.802l-25.679-6.476
	c-9.455-2.384-15.186-11.982-12.802-21.436l6.476-25.679c2.384-9.455,11.982-15.186,21.436-12.802l25.679,6.476
	C193.477,146.243,199.209,155.841,196.825,165.295z"/>
<path style="fill:#FFAF5D;" d="M188.06,171.479l-39.639,10.942c-6.839,1.888-13.815-0.553-18.126-5.626
	c-1.794,9.145,3.796,18.199,12.939,20.505l25.679,6.476c9.455,2.384,19.052-3.347,21.437-12.802l6.276-24.885
	C194.429,168.597,191.513,170.525,188.06,171.479z"/>
<path style="fill:#FFBE50;" d="M368.662,343.724l-7.113,25.51c-2.619,9.392-12.356,14.883-21.748,12.265l-25.51-7.113
	c-9.392-2.619-14.883-12.356-12.265-21.748l7.113-25.51c2.619-9.392,12.356-14.883,21.748-12.265l25.51,7.113
	C365.789,324.594,371.28,334.331,368.662,343.724z"/>
<path style="fill:#FFAF5D;" d="M359.745,349.687l-39.899,9.953c-6.883,1.717-13.797-0.897-17.981-6.075
	c-2.021,9.097,3.342,18.288,12.425,20.82l25.51,7.113c9.393,2.619,19.129-2.872,21.749-12.265l6.893-24.722
	C366.185,346.965,363.222,348.82,359.745,349.687z"/>
<path style="fill:#FFBE50;" d="M314.689,266.833l-7.085,25.517c-2.609,9.395-12.34,14.897-21.735,12.288l-25.517-7.085
	c-9.395-2.609-14.897-12.34-12.288-21.735l7.085-25.517c2.609-9.395,12.34-14.897,21.735-12.288l25.517,7.085
	C311.796,247.706,317.298,257.437,314.689,266.833z"/>
<path style="fill:#FFAF5D;" d="M305.779,272.806l-39.888,9.995c-6.882,1.725-13.798-0.882-17.987-6.056
	c-2.011,9.099,3.361,18.284,12.447,20.807l25.517,7.086c9.395,2.609,19.126-2.893,21.736-12.288l6.866-24.729
	C312.216,270.076,309.255,271.935,305.779,272.806z"/>
<path style="fill:#FFBE50;" d="M182.837,243.655l-25.497,7.158c-9.388,2.636-19.135-2.838-21.77-12.226l-7.158-25.497
	c-2.636-9.388,2.838-19.135,12.226-21.77l25.497-7.158c9.388-2.636,19.135,2.838,21.77,12.226l7.158,25.497
	C197.698,231.272,192.224,241.019,182.837,243.655z"/>
<path style="fill:#FFAF5D;" d="M173.112,239.128l-29.213-28.941c-5.04-4.993-6.393-12.259-4.138-18.523
	c-8.825,2.994-13.898,12.347-11.35,21.426l7.158,25.497c2.636,9.388,12.382,14.861,21.771,12.226l24.709-6.937
	C178.781,243.219,175.657,241.65,173.112,239.128z"/>
<path style="fill:#FFBE50;" d="M235.331,304.908l-23.024,13.086c-8.477,4.818-19.255,1.852-24.073-6.625l-13.086-23.024
	c-4.818-8.477-1.852-19.255,6.625-24.073l23.024-13.086c8.477-4.818,19.255-1.852,24.073,6.625l13.086,23.024
	C246.775,289.312,243.808,300.09,235.331,304.908z"/>
<path style="fill:#FFAF5D;" d="M224.803,302.855l-35.321-21.057c-6.094-3.633-9.157-10.36-8.476-16.982
	c-7.845,5.03-10.517,15.33-5.858,23.528l13.086,23.024c4.818,8.477,15.596,11.443,24.074,6.625l22.312-12.682
	C231.29,305.461,227.88,304.69,224.803,302.855z"/>
<path style="fill:#FFBE50;" d="M236.892,254.971l-23.024,13.086c-8.477,4.818-19.255,1.852-24.073-6.625l-13.086-23.024
	c-4.818-8.477-1.852-19.255,6.625-24.073l23.024-13.086c8.477-4.818,19.255-1.852,24.073,6.625l13.086,23.024
	C248.335,239.375,245.369,250.153,236.892,254.971z"/>
<path style="fill:#FFAF5D;" d="M226.363,252.919l-35.321-21.057c-6.094-3.633-9.157-10.36-8.476-16.982
	c-7.845,5.03-10.517,15.33-5.858,23.528l13.086,23.024c4.818,8.477,15.596,11.443,24.074,6.625l22.312-12.682
	C232.85,255.525,229.441,254.753,226.363,252.919z"/>
<path style="fill:#FFBE50;" d="M298.458,307.613l6.636,25.638c2.443,9.44-3.228,19.073-12.668,21.516l-25.638,6.636
	c-9.44,2.443-19.073-3.229-21.516-12.668l-6.636-25.638c-2.443-9.44,3.229-19.073,12.668-21.516l25.638-6.636
	C286.382,292.502,296.015,298.173,298.458,307.613z"/>
<path style="fill:#FFAF5D;" d="M293.734,317.243l-29.532,28.616c-5.095,4.937-12.387,6.141-18.603,3.759
	c2.813,8.884,12.06,14.148,21.189,11.785l25.638-6.636c9.44-2.443,15.111-12.076,12.668-21.516l-6.431-24.846
	C297.94,311.659,296.307,314.75,293.734,317.243z"/>
<path style="fill:#FFDC8C;" d="M112.433,112.433L112.433,112.433c17.238-17.236,47.914-14.506,174.778,112.358
	C413.984,351.563,416.8,382.286,399.603,399.53c48.238-48.255,70.617-104.088-56.215-230.919
	C216.525,41.747,160.696,64.169,112.433,112.433z"/>
<path style="fill:#FFBE50;" d="M264.583,144.423c-3.45,3.45-9.067,3.478-12.515,0.03s-3.481-9.003-0.03-12.454l0.061-0.061
	c3.45-3.45,9.037-3.447,12.484,0S268.033,140.973,264.583,144.423z"/>
<g>
	<path style="fill:#FFCD6E;" d="M407.37,304.376c-3.45,3.45-9.067,3.478-12.515,0.03s-3.481-9.003-0.03-12.454l0.061-0.061
		c3.45-3.45,9.037-3.447,12.484,0S410.82,300.926,407.37,304.376z"/>
	<path style="fill:#FFCD6E;" d="M219.718,117.505c-3.45,3.45-9.067,3.478-12.515,0.03s-3.481-9.003-0.03-12.454l0.061-0.061
		c3.45-3.45,9.037-3.447,12.484,0C223.165,108.468,223.168,114.054,219.718,117.505z"/>
</g>
<path style="fill:#FFBE50;" d="M331.746,204.442c-3.45,3.45-9.067,3.478-12.515,0.03s-3.481-9.003-0.03-12.454l0.061-0.061
	c3.45-3.45,9.037-3.447,12.484,0S335.196,200.992,331.746,204.442z"/>
<path style="fill:#FFCD6E;" d="M295.013,188.898c-3.45,3.45-9.067,3.478-12.515,0.03s-3.481-9.003-0.03-12.454l0.061-0.061
	c3.45-3.45,9.037-3.447,12.484,0S298.463,185.448,295.013,188.898z"/>
<path style="fill:#FFBE50;" d="M375.638,274.729c-3.45,3.45-9.067,3.478-12.515,0.03s-3.481-9.003-0.03-12.454l0.061-0.061
	c3.45-3.45,9.037-3.447,12.484,0C379.085,265.692,379.088,271.279,375.638,274.729z"/>
<path style="fill:#FFCD6E;" d="M373.624,247.612c-3.45,3.45-9.067,3.478-12.515,0.03s-3.487-8.997-0.037-12.448l0.067-0.067
	c3.45-3.45,9.037-3.447,12.484,0S377.074,244.162,373.624,247.612z"/>
<circle style="fill:#ADDF6E;" cx="248.84" cy="294.53" r="10.355"/>
<circle style="fill:#87CD6E;" cx="232.97" cy="203.24" r="10.355"/>
<g>
</g>
<g>
</g>
<g>
</g>
<g>
</g>
<g>
</g>
<g>
</g>
<g>
</g>
<g>
</g>
<g>
</g>
<g>
</g>
<g>
</g>
<g>
</g>
<g>
</g>
<g>
</g>
<g>
</g>
</svg>
